Coordinates
version=1
nRows=14
nColumns=36
inDegrees=yes

Units are S.I. units (second, meters, Newtons, ...)
If the header above contains a line with 'inDegrees', this indicates whether rotational values are in degrees (yes) or radians (no).

endheader
time	pelvis_tilt	pelvis_list	pelvis_rotation	pelvis_tx	pelvis_ty	pelvis_tz	hip_flexion_r	hip_adduction_r	hip_rotation_r	knee_angle_r	knee_angle_r_beta	ankle_angle_r	subtalar_angle_r	mtp_angle_r	hip_flexion_l	hip_adduction_l	hip_rotation_l	knee_angle_l	knee_angle_l_beta	ankle_angle_l	subtalar_angle_l	mtp_angle_l	lumbar_extension	lumbar_bending	lumbar_rotation	arm_flex_r	arm_add_r	arm_rot_r	elbow_flex_r	pro_sup_r	arm_flex_l	arm_add_l	arm_rot_l	elbow_flex_l	pro_sup_l
      1.75000000	     11.32975073	     11.94777385	     -3.96961481	      0.25383166	      0.81354589	     -0.17522000	     54.07787652	    -20.10317164	     16.44387937	     30.36369384	      0.52994643	    -18.61117394	     -8.02623355	     -7.49999567	     23.15625308	     21.80718422	     -0.80398881	     63.93381528	      1.11585558	     31.82479781	     -6.84209131	     -7.49999567	    -32.11913286	    -18.27453062	     -6.49641329	     34.57584183	      2.51087666	     42.08169707	    120.73349764	     81.48845938	     38.29501992	    -17.43986657	     65.57964436	    132.71090218	     76.80491842
      1.76666670	     11.41831823	     12.14156205	     -4.18035227	      0.25259098	      0.82037799	     -0.17502169	     54.33494092	    -20.13934946	     16.95273488	     30.35394317	      0.52977625	    -19.11682201	     -7.82545775	     -7.49999711	     23.23828331	     21.88320605	     -1.16940993	     64.10149626	      1.11878217	     31.78708998	     -6.84453772	     -7.49999711	    -32.78886299	    -18.44008439	     -6.46070555	     35.06928503	      2.20359577	     42.23789024	    120.19850428	     87.82374044	     38.43787645	    -17.38459023	     65.50600097	    132.12717074	     79.95268107
      1.78333330	     11.13920680	     12.41673923	     -4.26753442	      0.25395967	      0.80949301	     -0.17423657	     55.25800190	    -20.19687935	     17.67191342	     30.63074742	      0.53460739	    -19.23292758	     -7.63161677	     -7.49999806	     23.86386908	     22.00355723	     -1.58193249	     64.50624434	      1.12584635	     31.80896899	     -6.64944963	     -7.49999806	    -32.58335770	    -18.74675678	     -6.62281825	     34.97393827	      2.33763472	     42.39176410	    119.92226539	     87.20647097	     38.61241851	    -17.27543015	     64.54539528	    131.64928686	     79.05841280
      1.80000000	     10.63181650	     12.75857907	     -4.29790714	      0.25363754	      0.80359806	     -0.17380365	     56.56982044	    -20.15617755	     18.56708657	     31.34923926	      0.54714744	    -18.97618501	     -7.50156226	     -7.49999837	     25.08009780	     22.14998984	     -2.13053698	     65.30777175	      1.13983564	     31.93161985	     -6.51972695	     -7.49999837	    -32.05542094	    -19.11856893	     -6.70251632	     34.91644697	      2.45555173	     42.96131860	    120.65402138	     84.96691858	     38.72799394	    -17.40738940	     62.52019516	    131.44782767	     77.15808236
      1.81666670	     10.29157026	     13.29839247	     -4.08241250	      0.25312722	      0.80661811	     -0.17432432	     57.67389159	    -20.48063448	     19.30181595	     31.95100788	      0.55765029	    -18.78827962	     -7.14955955	     -7.49999842	     26.01898728	     22.60699898	     -2.51650724	     65.84559651	      1.14922246	     31.97860582	     -6.39074983	     -7.49999842	    -32.06613339	    -19.58562240	     -7.08453231	     34.73005129	      2.24296082	     43.66002945	    120.63492013	     85.27731825	     38.45757078	    -17.99757119	     61.62926160	    130.97759761	     77.19025369
      1.83333330	     10.08878847	     13.70271377	     -3.78742396	      0.25255406	      0.80686325	     -0.17395810	     58.32047364	    -20.89782001	     19.70851866	     32.18685079	      0.56176652	    -18.63351524	     -6.67915439	     -7.49999860	     26.48130396	     23.08938404	     -2.53491616	     66.06453798	      1.15304371	     32.11651525	     -6.20265187	     -7.49999860	    -32.30429983	    -19.95191704	     -7.45656083	     34.37842982	      2.47481919	     43.36919175	    119.89951164	     83.86565197	     38.20004758	    -18.70659850	     61.12175266	    130.64843887	     76.04192954
      1.85000000	      9.88781841	     13.99484316	     -3.74128029	      0.25255147	      0.80662845	     -0.17439139	     58.92457935	    -21.09462645	     20.07765914	     32.43021392	      0.56601401	    -18.41581523	     -6.17786994	     -7.49999875	     26.88804570	     23.43943621	     -2.60921652	     66.24960744	      1.15627378	     32.11726512	     -6.16900983	     -7.49999875	    -32.48751860	    -20.15815226	     -7.66058530	     34.33288437	      2.51949536	     43.52641353	    119.65741559	     82.80055418	     37.97858876	    -19.04679056	     61.07309508	    130.93819979	     75.13440963
      1.86666670	      9.16456980	     14.38285006	     -3.69958044	      0.25390987	      0.80004893	     -0.17341344	     60.17382377	    -21.13239119	     20.64292854	     32.80426037	      0.57254235	    -18.07799269	     -5.69498220	     -7.49999925	     27.79346478	     23.80902856	     -2.78797751	     66.40890410	      1.15905403	     32.14419944	     -6.19681422	     -7.49999925	    -31.87066979	    -20.45502186	     -7.70469480	     34.07354193	      2.58040635	     44.17201514	    120.02848631	     88.62746879	     37.87449862	    -18.84431609	     61.04358883	    131.15323069	     78.00989059
      1.88333330	      8.89055326	     14.82948821	     -3.27079368	      0.24424129	      0.80149133	     -0.17203918	     60.86623854	    -21.60872259	     20.88581351	     33.00423974	      0.57603265	    -18.14451379	     -5.29865859	     -7.49999926	     28.34778593	     24.29963948	     -2.80200415	     66.61565424	      1.16266250	     31.86917237	     -6.37265257	     -7.49999926	    -32.31706417	    -20.76086036	     -7.91671826	     34.76125915	      2.71793488	     43.79112979	    119.71083762	     88.56845460	     39.15060976	    -18.58189768	     58.79362535	    130.49963912	     77.73463447
      1.90000000	      8.66417997	     15.22492245	     -2.79284849	      0.24458946	      0.80219158	     -0.17186118	     61.37989016	    -22.14556966	     20.97214513	     32.96598941	      0.57536506	    -18.15923702	     -4.68071722	     -7.49999935	     28.80541009	     24.78796048	     -2.69102287	     66.79425897	      1.16577974	     31.48716204	     -6.67201586	     -7.49999935	    -32.68332580	    -21.00986755	     -8.23712601	     34.87950834	      2.99502352	     42.25012075	    118.86712208	     86.36842897	     40.42817422	    -18.34182073	     50.79773428	    126.69019601	     75.35750932
      1.91666670	      8.53747150	     15.65597295	     -2.18642409	      0.24511071	      0.80201435	     -0.17239858	     61.68383265	    -22.89492091	     20.93296702	     32.66062229	      0.57003539	    -18.32740504	     -3.98694066	     -7.49999941	     29.07206789	     25.39218139	     -2.43184394	     66.93036601	      1.16815526	     31.07219947	     -6.84353068	     -7.49999941	    -33.05836928	    -21.17518590	     -8.93949736	     35.03268081	      3.10688385	     42.81715061	    119.48532504	     85.13097896	     40.91040220	    -18.72589517	     50.21736641	    126.70471100	     74.24979293
      1.93333330	      8.50267809	     15.77211124	     -2.12163584	      0.25466974	      0.80354768	     -0.17434692	     61.45077907	    -23.26464598	     20.78370116	     32.01526194	      0.55877173	    -18.06277363	     -3.02331601	     -7.49999942	     28.75115632	     25.73555758	     -2.07620669	     66.65861407	      1.16341229	     31.04494716	     -7.02762961	     -7.49999942	    -32.87785396	    -21.30779112	     -8.70276392	     34.43619952	      3.04256097	     42.28709702	    119.23279549	     85.29279904	     40.22142368	    -18.33187637	     46.63165705	    124.58962428	     73.88829245
      1.95000000	      8.54441629	     15.86801322	     -1.97817625	      0.25448036	      0.80662651	     -0.17481904	     61.04374294	    -23.64686112	     20.85011598	     31.59289284	      0.55140000	    -17.78067905	     -2.12244905	     -7.49999958	     28.10804347	     26.05615223	     -1.70635198	     66.17232314	      1.15492491	     31.03022055	     -7.30832280	     -7.49999958	    -32.92463055	    -21.24853519	     -8.78092493	     34.64929966	      2.68312301	     43.91460895	    119.71379113	     82.15635755	     38.67033911	    -19.27950534	     50.72215607	    127.44600499	     72.13187097
      1.96666670	      8.29734580	     15.84241401	     -1.83348390	      0.25431489	      0.80045207	     -0.17450096	     61.03608917	    -23.77823278	     20.87791157	     31.36830928	      0.54748028	    -17.64694858	     -1.76889172	     -7.49999969	     27.99973186	     26.16418926	     -1.44090909	     65.95378203	      1.15111065	     30.95802509	     -7.51711632	     -7.49999969	    -32.67012225	    -21.26829933	     -8.63858740	     33.74363765	      2.88154954	     43.69200550	    120.49470518	     91.88497393	     37.96701619	    -18.81948905	     54.64567885	    129.04978330	     78.36640078
